<?xml version="1.0" encoding="UTF-8"?>
<svg id="Warstwa_2" data-name="Warstwa 2" xmlns="http://www.w3.org/2000/svg" viewBox="0 0 700.03 700.04">
  <defs>
    <style>
      .cls-1 {
        fill: #fff;
        stroke-width: 0px;
      }
    </style>
  </defs>
  <g id="Warstwa_1-2" data-name="Warstwa 1">
    <g>
      <path class="cls-1" d="m674.3,375.2h-99.3v-75.31c0-4.5-.14-8.91-.42-13.23,46.2-43.56,50.39-100.98,50.42-160.94,0-13.45-10.38-25-23.83-25.64-13.79-.65-25.5,10.01-26.14,23.8-.02.37-.03.75-.03,1.12,0,43.75-2.91,75.23-15.47,99.75-30.03-64.3-102.78-99.86-209.53-99.86-62.19,0-115.92,14.27-155.36,41.23-23.28,15.92-40.94,35.8-52.66,58.94-13.86-24.05-16.98-54.75-16.98-99.34,0-13.45-10.31-25-23.75-25.69-13.79-.69-25.53,9.93-26.22,23.72-.02.42-.03.83-.03,1.25,0,58.8,4.08,115.2,50.69,158.8-.45,5.27-.68,10.64-.69,16.09v75.31H25.7c-13.45,0-25,10.34-25.67,23.8-.66,13.79,9.98,25.51,23.77,26.17.41.02.82.03,1.23.03h100v24.8c-.02,28.75,5.49,57.23,16.23,83.89-40.11,35.86-65.98,75.48-66.27,140.08,0,13.66,10.34,25.47,24,26.02,13.8.55,25.43-10.18,25.98-23.98.01-.33.02-.67.02-1,0-43.22,14.22-69.86,40.89-95.81,30.76,43.78,76.07,75.2,127.86,88.66,13.37,3.45,27-4.59,30.46-17.96.53-2.04.79-4.14.79-6.25V250.7c0-13.45,10.34-25,23.8-25.67,13.79-.66,25.51,9.98,26.17,23.77.02.4.03.8.03,1.2v393.64c0,13.81,11.2,25,25,25,2.11,0,4.21-.27,6.25-.79,51.78-13.46,97.09-44.88,127.84-88.66,26.56,25.84,40.77,52.37,40.89,95.23-.12,13.42,10.21,24.61,23.59,25.58,13.78.79,25.6-9.75,26.38-23.54.03-.49.04-.97.04-1.46,0-65.12-25.94-105.05-66.23-141.11,10.75-26.66,16.26-55.14,16.23-83.89v-24.8h100c13.81.02,25.01-11.16,25.03-24.97,0-.41,0-.82-.03-1.23-.66-13.45-12.25-23.8-25.7-23.8Z"/>
      <path class="cls-1" d="m452.17,112.5l.5.14c21.2,5.94,39.17-16.48,28.44-35.7C454.69,29.47,404.65.03,350.33,0h-.66c-54.89.04-105.36,30.09-131.55,78.33-10.69,19.66,8.03,42.19,29.44,35.72,30.8-9.38,65.3-14.16,102.44-14.16s72.02,4.25,102.17,12.61Z"/>
    </g>
  </g>
</svg>