<?xml version="1.0" encoding="UTF-8"?>
<svg id="Warstwa_2" data-name="Warstwa 2" xmlns="http://www.w3.org/2000/svg" viewBox="0 0 610.33 410.33">
  <defs>
    <style>
      .cls-1 {
        fill: #fff;
        stroke-width: 0px;
      }
    </style>
  </defs>
  <g id="Warstwa_1-2" data-name="Warstwa 1">
    <g>
      <path class="cls-1" d="m571.83,77H38.5C17.24,77,0,59.76,0,38.5S17.24,0,38.5,0h533.33c21.26,0,38.5,17.24,38.5,38.5s-17.24,38.5-38.5,38.5Z"/>
      <path class="cls-1" d="m405.17,243.67H38.5c-21.26,0-38.5-17.24-38.5-38.5s17.24-38.5,38.5-38.5h366.67c21.26,0,38.5,17.24,38.5,38.5s-17.24,38.5-38.5,38.5Z"/>
      <path class="cls-1" d="m205.17,410.33H38.5c-21.26,0-38.5-17.24-38.5-38.5s17.24-38.5,38.5-38.5h166.67c21.26,0,38.5,17.24,38.5,38.5s-17.24,38.5-38.5,38.5Z"/>
    </g>
  </g>
</svg>