<?xml version="1.0" encoding="UTF-8"?>
<svg id="Warstwa_2" data-name="Warstwa 2" xmlns="http://www.w3.org/2000/svg" viewBox="0 0 666.17 666.67">
  <defs>
    <style>
      .cls-1 {
        fill: #fff;
        stroke-width: 0px;
      }
    </style>
  </defs>
  <g id="Warstwa_1-2" data-name="Warstwa 1">
    <path class="cls-1" d="m619.7,2.83L19.7,260.13c-16.8,7.53-24.31,27.26-16.77,44.06,4.6,10.26,14.07,17.51,25.17,19.28l275.27,39.33,39.33,275.27c2.61,18.22,19.5,30.88,37.73,28.26,11.51-1.65,21.33-9.18,25.91-19.86L663.47,46.46c7.25-16.92-.59-36.52-17.51-43.77-8.38-3.59-17.87-3.59-26.25,0v.13Zm-227.83,508.23l-26.03-182.33c-2.1-14.65-13.61-26.17-28.27-28.27l-182.37-26.03,414.3-177.63-177.63,414.27Z"/>
  </g>
</svg>