<?xml version="1.0" encoding="UTF-8"?>
<svg id="Warstwa_2" data-name="Warstwa 2" xmlns="http://www.w3.org/2000/svg" xmlns:xlink="http://www.w3.org/1999/xlink" viewBox="0 0 1348.96 310.09">
  <defs>
    <style>
      .cls-1 {
        fill: url(#Gradient_bez_nazwy_27-2);
      }

      .cls-1, .cls-2, .cls-3, .cls-4 {
        stroke-width: 0px;
      }

      .cls-2 {
        fill: url(#Gradient_bez_nazwy_27);
      }

      .cls-3 {
        fill: #fff;
      }

      .cls-4 {
        fill: url(#Gradient_bez_nazwy_27-3);
      }
    </style>
    <linearGradient id="Gradient_bez_nazwy_27" data-name="Gradient bez nazwy 27" x1="-184.75" y1="122.01" x2="1130.66" y2="-230.56" gradientUnits="userSpaceOnUse">
      <stop offset="0" stop-color="#c8f20c"/>
      <stop offset="1" stop-color="#f2e30c"/>
    </linearGradient>
    <linearGradient id="Gradient_bez_nazwy_27-2" data-name="Gradient bez nazwy 27" x1="-164.83" y1="196.35" x2="1150.59" y2="-156.22" xlink:href="#Gradient_bez_nazwy_27"/>
    <linearGradient id="Gradient_bez_nazwy_27-3" data-name="Gradient bez nazwy 27" x1="-144.02" y1="273.97" x2="1171.39" y2="-78.59" xlink:href="#Gradient_bez_nazwy_27"/>
  </defs>
  <g id="Warstwa_1-2" data-name="Warstwa 1">
    <g>
      <path class="cls-3" d="m520,246.76h-46.46v-108.91h-61.56v108.91h-46.46v-108.91h-25.75v-37.29h25.75v-7.69c0-41.14,29.3-58.3,60.37-58.3,12.43,0,23.68,2.37,33.74,8.29l-13.61,31.37c-5.03-1.78-9.77-2.96-14.21-2.96-12.13,0-19.83,7.4-19.83,21.31v7.99h108.02v146.2Zm-50.31-185.86c0-14.8,11.25-25.45,27.23-25.45s27.23,10.65,27.23,25.45-11.25,25.16-27.23,25.16-27.23-10.36-27.23-25.16Z"/>
      <path class="cls-3" d="m704.67,164.19v82.57h-46.46v-79.91c0-18.94-10.06-30.19-26.64-30.19-18.05,0-30.19,13.61-30.19,33.15v76.95h-46.46V100.56h40.25l2.96,17.16c10.95-13.02,27.52-20.42,47.06-20.42,36.11,0,59.49,24.86,59.49,66.89Z"/>
      <path class="cls-3" d="m891.12,100.56v146.2h-40.25l-2.96-17.46c-12.13,13.32-28.71,20.42-48.54,20.42-41.14,0-69.84-31.08-69.84-76.06s28.71-76.06,69.84-76.06c19.83,0,36.7,7.1,48.54,20.12l2.96-17.16h40.25Zm-45.87,73.1c0-21.9-14.21-36.99-34.92-36.99s-34.63,15.09-34.63,36.99,14.21,36.99,34.63,36.99,34.92-15.09,34.92-36.99Z"/>
      <path class="cls-3" d="m1087.93,173.66c0,44.98-29,76.06-70.14,76.06-17.76,0-33.44-5.92-45.28-17.16v77.54h-46.46V100.56h40.25l2.96,17.16c12.13-13.32,28.71-20.12,48.54-20.12,41.14,0,70.14,31.08,70.14,76.06Zm-46.17,0c0-21.9-14.21-36.99-34.92-36.99s-34.63,15.09-34.63,36.99,14.21,36.99,34.63,36.99,34.92-15.09,34.92-36.99Z"/>
      <path class="cls-3" d="m1114.27,39.59h46.46v207.17h-46.46V39.59Z"/>
      <path class="cls-3" d="m1348.96,100.56v146.2h-40.25l-2.96-17.46c-12.13,13.32-28.71,20.42-48.54,20.42-41.14,0-69.84-31.08-69.84-76.06s28.71-76.06,69.84-76.06c19.83,0,36.7,7.1,48.54,20.12l2.96-17.16h40.25Zm-45.87,73.1c0-21.9-14.21-36.99-34.92-36.99s-34.63,15.09-34.63,36.99,14.21,36.99,34.63,36.99,34.92-15.09,34.92-36.99Z"/>
    </g>
    <path class="cls-2" d="m73.33,0h194.01c0,40.47-32.86,73.33-73.33,73.33H0C0,32.86,32.86,0,73.33,0Z"/>
    <path class="cls-1" d="m0,96.51h205.31c0,40.47-32.86,73.33-73.33,73.33H0v-73.33H0Z"/>
    <path class="cls-4" d="m0,193.02h106.01c0,40.47-32.86,73.33-73.33,73.33H0v-73.33H0Z"/>
  </g>
</svg>