<?xml version="1.0" encoding="UTF-8"?>
<svg id="Warstwa_2" data-name="Warstwa 2" xmlns="http://www.w3.org/2000/svg" viewBox="0 0 800.06 800.19">
  <defs>
    <style>
      .cls-1 {
        fill: #fff;
        stroke-width: 0px;
      }
    </style>
  </defs>
  <g id="Warstwa_1-2" data-name="Warstwa 1">
    <path class="cls-1" d="m.06,388.02C.06,164.97,174.66,0,400.06,0s400,164.97,400,388.02-174.6,388.02-400,388.02c-40.37,0-79.3-5.35-115.62-15.37-7.15-1.95-14.72-1.3-21.35,1.7l-79.7,35.02c-20.83,9.25-44.4-5.6-45.05-28.38l-2.35-71.35c-.25-8.73-4.17-16.8-10.55-22.65C44.31,601.85-1.39,497.3.03,388.05l.02-.02Zm277.35-73.05l-117.32,186.73c-11.72,17.57,10.68,38.02,27.35,25l126.3-95.7c8.72-6.65,20.05-6.65,29.03,0l93.23,70.05c28.12,20.98,68.1,13.28,86.72-16.03l117.32-186.72c11.72-17.58-10.68-37.63-27.35-25l-126.3,95.7c-8.33,6.65-20.05,6.65-28.65,0l-93.35-70.05c-28.12-21.22-68.23-13.8-86.98,16.02h0Z"/>
  </g>
</svg>