<?xml version="1.0" encoding="UTF-8"?>
<svg id="Warstwa_2" data-name="Warstwa 2" xmlns="http://www.w3.org/2000/svg" viewBox="0 0 281.77 281.77">
  <defs>
    <style>
      .cls-1, .cls-2 {
        stroke-width: 0px;
      }

      .cls-2 {
        fill: none;
      }

      .cls-3 {
        fill: #c9f30d;
        stroke: #000;
        stroke-miterlimit: 10;
        stroke-width: 8px;
      }
    </style>
  </defs>
  <g id="Layer_1" data-name="Layer 1">
    <g>
      <rect class="cls-2" width="281.77" height="281.77"/>
      <g>
        <path class="cls-3" d="m221.85,59.91l-24.01-24.01c-4.76-4.76-11.22-7.44-17.96-7.44h-102c-14.03,0-25.4,11.37-25.4,25.4v174.05c0,14.03,11.37,25.4,25.4,25.4h126.01c14.03,0,25.4-11.37,25.4-25.4V77.87c0-6.74-2.68-13.2-7.44-17.96Zm-13.69,16.15h-21.32c-2.84,0-5.15-2.31-5.15-5.15v-21.32c0-4.59,5.54-6.88,8.78-3.64l21.33,21.32c3.24,3.25.95,8.79-3.64,8.79Z"/>
        <g>
          <path class="cls-1" d="m71.17,233.09c0-3.01,2.36-5.2,5.59-5.2s5.59,2.19,5.59,5.2-2.36,5.2-5.59,5.2-5.59-2.19-5.59-5.2Z"/>
          <path class="cls-1" d="m121.95,213.37c0,8.65-5.75,13.97-15.12,13.97h-8.16v10.41h-10.41v-38.35h18.57c9.37,0,15.12,5.31,15.12,13.97Zm-10.35.05c0-3.01-1.97-4.93-5.2-4.93h-7.83v9.86h7.83c3.23,0,5.2-1.92,5.2-4.93Z"/>
          <path class="cls-1" d="m162.92,218.58c0,11.72-7.78,19.17-20,19.17h-16.21v-38.35h16.21c12.22,0,20,7.45,20,19.17Zm-10.41,0c0-6.46-3.83-10.3-9.59-10.3h-5.81v20.6h5.81c5.75,0,9.59-3.83,9.59-10.3Z"/>
          <path class="cls-1" d="m178.97,208.28v7.67h17.42v8.66h-17.42v13.15h-10.41v-38.35h28.92v8.87h-18.52Z"/>
        </g>
      </g>
    </g>
  </g>
</svg>