<?xml version="1.0" encoding="UTF-8"?>
<svg id="Warstwa_2" data-name="Warstwa 2" xmlns="http://www.w3.org/2000/svg" viewBox="0 0 343.89 343.84">
  <defs>
    <style>
      .cls-1 {
        fill: #fff;
        stroke-width: 0px;
      }
    </style>
  </defs>
  <g id="Layer_1" data-name="Layer 1">
    <path class="cls-1" d="m343.58,164.72c-3.95-64.54-34.6-112.84-90.92-144.5C231.63,8.4,208.71,2.18,184.6.55c-.88-.06-1.73-.37-2.6-.55h-20.15c-6.51.87-13.09,1.46-19.54,2.66C90.93,12.24,51.58,39.5,24.29,83.94,10.2,106.89,2.51,132.06.57,158.96c-.06.97-.37,1.93-.57,2.89v20.14c.88,6.52,1.5,13.09,2.69,19.55,8.91,48.33,33.83,86.35,74.54,113.73,30.74,20.68,65.03,30.47,101.96,28.27,64.81-3.87,113.26-34.84,144.73-91.58,14.98-27,21.54-56.48,19.66-87.24Zm-173.73,108.01c-11.59-.17-19.92-8.62-19.75-20.05.16-11.34,9.15-19.87,20.69-19.65,11.14.21,19.47,8.94,19.31,20.21-.16,11.5-8.64,19.67-20.25,19.49Zm52.15-112.97c-8.65,7.95-17.17,16.04-25.84,23.97-5.48,5.02-8.93,11.08-10.26,18.38-.36,1.98-.92,3.92-1.41,5.87-2.3,9.13-8.14,13.56-16.9,12.81-8.83-.75-14.55-6.67-15.02-15.92-.73-14.23,3.54-26.79,13.71-36.89,8.01-7.96,16.51-15.43,24.71-23.2,2.18-2.07,4.17-4.36,6.03-6.73,9.81-12.56,4.25-31.18-12.21-36.96-8.92-3.14-18.07-2.75-26.82,1.22-6.39,2.9-9.99,8.5-12.9,14.47-2.3,4.71-4.04,9.68-5.99,14.55-4.46,11.13-15.42,15.46-25,9.6-5.8-3.55-9.18-8.7-8.69-15.87,1.05-15.18,8.18-27.25,19.43-36.96,13.9-12.01,30.39-17.07,48.6-17,16.03.02,30.98,3.59,44.2,13.15,23.02,16.64,30.64,51.34,4.36,75.51Z"/>
  </g>
</svg>