<?xml version="1.0" encoding="UTF-8"?>
<svg id="Warstwa_2" data-name="Warstwa 2" xmlns="http://www.w3.org/2000/svg" viewBox="0 0 733.33 600">
  <defs>
    <style>
      .cls-1, .cls-2 {
        fill: #fff;
        stroke-width: 0px;
      }

      .cls-2 {
        fill-rule: evenodd;
      }
    </style>
  </defs>
  <g id="Warstwa_1-2" data-name="Warstwa 1">
    <g>
      <path class="cls-1" d="m133.33,433.33c0-18.41,14.92-33.33,33.33-33.33h66.67c18.41,0,33.33,14.92,33.33,33.33s-14.92,33.33-33.33,33.33h-66.67c-18.41,0-33.33-14.92-33.33-33.33Z"/>
      <path class="cls-1" d="m333.33,400c-18.41,0-33.33,14.92-33.33,33.33s14.92,33.33,33.33,33.33h33.33c18.41,0,33.33-14.92,33.33-33.33s-14.92-33.33-33.33-33.33h-33.33Z"/>
      <path class="cls-2" d="m192.93,0c-27.28,0-49.8,0-68.14,1.52-19.05,1.58-36.54,4.98-52.93,13.49-24.35,12.65-44.21,32.51-56.86,56.86C6.5,88.26,3.1,105.75,1.52,124.8,0,143.13,0,165.65,0,192.93v214.13c0,27.28,0,49.8,1.52,68.14,1.58,19.04,4.98,36.54,13.49,52.93,12.65,24.35,32.51,44.21,56.86,56.86,16.39,8.51,33.88,11.91,52.93,13.49,18.33,1.52,40.85,1.52,68.14,1.52h347.47c27.28,0,49.8,0,68.14-1.52,19.04-1.58,36.54-4.98,52.93-13.49,24.35-12.65,44.21-32.51,56.86-56.86,8.51-16.39,11.91-33.88,13.49-52.93,1.52-18.33,1.52-40.85,1.52-68.14v-214.13c0-27.28,0-49.8-1.52-68.14-1.58-19.05-4.98-36.54-13.49-52.93-12.65-24.35-32.51-44.21-56.86-56.86-16.39-8.51-33.88-11.91-52.93-13.49C590.2,0,567.68,0,540.4,0H192.93Zm-90.33,74.17c5.29-2.75,12.87-4.98,27.71-6.21,15.25-1.27,34.98-1.29,64.02-1.29h344.67c29.03,0,48.77.03,64.02,1.29,14.85,1.23,22.43,3.47,27.71,6.21,12.17,6.33,22.1,16.25,28.43,28.43,2.75,5.29,4.98,12.87,6.21,27.71.82,9.82,1.12,21.51,1.23,36.35H66.73c.11-14.84.41-26.53,1.23-36.35,1.23-14.85,3.47-22.43,6.21-27.71,6.33-12.18,16.25-22.1,28.43-28.43Zm-35.94,159.16v172.33c0,29.03.03,48.77,1.29,64.02,1.23,14.85,3.47,22.43,6.21,27.71,6.33,12.17,16.25,22.1,28.43,28.43,5.29,2.75,12.87,4.98,27.71,6.21,15.25,1.27,34.98,1.29,64.02,1.29h344.67c29.03,0,48.77-.03,64.02-1.29,14.85-1.23,22.43-3.47,27.71-6.21,12.17-6.32,22.1-16.25,28.43-28.43,2.75-5.29,4.98-12.87,6.21-27.71,1.27-15.25,1.29-34.99,1.29-64.02v-172.33H66.67Z"/>
    </g>
  </g>
</svg>