<?xml version="1.0" encoding="UTF-8"?>
<svg id="Warstwa_2" data-name="Warstwa 2" xmlns="http://www.w3.org/2000/svg" viewBox="0 0 600.04 700.04">
  <defs>
    <style>
      .cls-1 {
        fill: #fff;
        stroke-width: 0px;
      }
    </style>
  </defs>
  <g id="Warstwa_1-2" data-name="Warstwa 1">
    <path class="cls-1" d="m0,649.6c0,13.87,4.8,25.87,14.4,36,9.6,10.13,21.6,14.93,36,14.4h500c13.33,0,25.07-4.8,35.2-14.4,10.13-9.6,14.93-21.6,14.4-36,0-24-5.6-48.27-16.8-72.8-11.2-24.53-25.87-46.4-44-65.6-18.13-19.2-38.93-37.07-62.4-53.6s-47.47-29.07-72-37.6c29.33-18.13,52.53-42.4,69.6-72.8s25.6-62.93,25.6-97.6v-49.6c0-55.47-19.47-102.67-58.4-141.6C402.67,19.47,355.47,0,300,0s-102.67,19.47-141.6,58.4c-38.93,38.93-58.4,86.13-58.4,141.6v49.6c0,35.2,8.53,67.73,25.6,97.6,17.07,29.87,40.27,54.13,69.6,72.8-25.07,9.07-49.07,21.6-72,37.6s-43.73,33.87-62.4,53.6c-18.67,19.73-33.33,41.6-44,65.6-10.67,24-16.27,48.27-16.8,72.8h0Z"/>
  </g>
</svg>