<?xml version="1.0" encoding="UTF-8"?>
<svg id="Warstwa_2" data-name="Warstwa 2" xmlns="http://www.w3.org/2000/svg" viewBox="0 0 240.36 248.73">
  <defs>
    <style>
      .cls-1, .cls-2 {
        fill: #fff;
        stroke-width: 0px;
      }

      .cls-2 {
        fill-rule: evenodd;
      }
    </style>
  </defs>
  <g id="Warstwa_1-2" data-name="Warstwa 1">
    <g>
      <path class="cls-1" d="m54.78,76.54c1.25-9.87,14.08-23.29,24.26-21.8l-.02-.02c9.91,1.88,17.76,18.94,22.18,26.61,3.13,5.57,1.1,11.2-1.82,13.58-3.94,3.18-10.11,7.56-8.82,11.97,2.3,7.83,29.61,35.14,43.05,42.91,5.08,2.94,8.77-4.81,11.92-8.78,2.29-3.05,7.93-4.88,13.48-1.86,8.29,4.83,16.1,10.44,23.33,16.76,3.61,3.02,4.45,7.47,1.95,12.18-4.4,8.3-17.14,19.24-26.38,17.01-16.15-3.88-81.44-29.19-102.41-102.52-1.18-3.47-.88-4.78-.72-6.03Z"/>
      <path class="cls-2" d="m120.18,240.36c-13.37,0-20.76-1.43-32.78-5.46l-23,11.5c-14.53,7.26-31.62-3.3-31.62-19.54v-24.73C9.25,180.18,0,154.88,0,120.18,0,53.81,53.81,0,120.18,0s120.18,53.81,120.18,120.18-53.81,120.18-120.18,120.18Zm-65.55-47.74l-6.95-6.48c-18.28-17.04-25.83-36.1-25.83-65.96,0-54.3,44.02-98.33,98.33-98.33s98.33,44.02,98.33,98.33-44.02,98.33-98.33,98.33c-10.77,0-15.82-.97-25.83-4.33l-8.6-2.89-31.12,15.56v-34.24Z"/>
    </g>
  </g>
</svg>