<?xml version="1.0" encoding="UTF-8"?>
<svg id="Warstwa_2" data-name="Warstwa 2" xmlns="http://www.w3.org/2000/svg" viewBox="0 0 281.77 281.77">
  <defs>
    <style>
      .cls-1, .cls-2 {
        stroke-width: 0px;
      }

      .cls-2 {
        fill: none;
      }

      .cls-3 {
        fill: #c9f30d;
        stroke: #000;
        stroke-miterlimit: 10;
        stroke-width: 8px;
      }
    </style>
  </defs>
  <g id="Layer_1" data-name="Layer 1">
    <g>
      <rect class="cls-2" width="281.77" height="281.77"/>
      <g>
        <path class="cls-3" d="m221.85,59.91l-24.01-24.01c-4.76-4.76-11.22-7.44-17.96-7.44h-102c-14.03,0-25.4,11.37-25.4,25.4v174.05c0,14.03,11.37,25.4,25.4,25.4h126.01c14.03,0,25.4-11.37,25.4-25.4V77.87c0-6.74-2.68-13.2-7.44-17.96Zm-13.69,16.15h-21.32c-2.84,0-5.15-2.31-5.15-5.15v-21.32c0-4.59,5.54-6.88,8.78-3.64l21.33,21.32c3.24,3.25.95,8.79-3.64,8.79Z"/>
        <g>
          <path class="cls-1" d="m108.53,237.75h-12.65l-3.73-5.81-3.45-5.92-3.29,5.86-3.78,5.86h-12.82l12.71-19.01-11.94-19.34h12.27l3.34,5.81,3.23,6.03,3.4-6.03,3.56-5.81h12.38l-12.16,18.79,12.93,19.56Z"/>
          <path class="cls-1" d="m112.09,199.41h10.41v29.09h18.74v9.26h-29.14v-38.35Z"/>
          <path class="cls-1" d="m143.64,233.26l5.37-7.45c3.4,2.57,7.01,3.78,11.34,3.78,3.94,0,6.35-1.31,6.35-3.45s-2.03-3.23-6.74-3.67c-10.52-.99-15.23-4.6-15.23-11.67,0-7.45,6.46-12.38,16.21-12.38,5.48,0,10.79,1.53,14.63,4.22l-4.77,7.29c-2.74-1.86-5.92-2.85-9.31-2.85-4.16,0-6.68,1.26-6.68,3.29s1.75,3.01,6.63,3.51c10.08,1.04,15.45,5.31,15.45,12.38,0,7.45-6.68,12.49-16.49,12.49-6.41,0-12.65-2.03-16.76-5.48Z"/>
          <path class="cls-1" d="m217.15,237.75h-12.65l-3.73-5.81-3.45-5.92-3.29,5.86-3.78,5.86h-12.82l12.71-19.01-11.94-19.34h12.27l3.34,5.81,3.23,6.03,3.4-6.03,3.56-5.81h12.38l-12.16,18.79,12.93,19.56Z"/>
        </g>
      </g>
    </g>
  </g>
</svg>