<?xml version="1.0" encoding="UTF-8"?>
<svg id="Warstwa_2" data-name="Warstwa 2" xmlns="http://www.w3.org/2000/svg" viewBox="0 0 247.4 205.03">
  <defs>
    <style>
      .cls-1 {
        fill: #fff;
        stroke-width: 0px;
      }
    </style>
  </defs>
  <g id="Warstwa_1-2" data-name="Warstwa 1">
    <path class="cls-1" d="m247.29,17.78c-3.43,36.03-18.26,123.44-25.81,163.79-3.19,17.07-9.48,22.79-15.57,23.36-10.47.97-18.96-5.08-28.39-11.81-2.48-1.76-5.02-3.58-7.69-5.33-10.46-6.86-18.55-12.37-26.66-17.89-7.43-5.06-14.87-10.13-24.17-16.26-19.36-12.76-11.26-20.57-.45-30.98,1.74-1.69,3.57-3.44,5.35-5.3.8-.83,4.7-4.45,10.2-9.57,17.63-16.39,51.72-48.08,52.57-51.75.15-.6.28-2.84-1.05-4.02-1.33-1.19-3.3-.78-4.72-.46-2.01.46-34.04,21.63-96.09,63.51-9.09,6.24-17.33,9.29-24.7,9.13-8.13-.17-23.78-4.6-35.41-8.38-1.71-.56-3.37-1.08-4.98-1.59C7.87,110.51-.81,107.78.06,100.85c.51-4.11,6.16-8.3,16.94-12.59,66.41-28.94,110.7-48.01,132.86-57.22C213.13,4.72,226.28.15,234.84,0c1.88-.03,6.1.43,8.83,2.64,2.31,1.87,2.94,4.4,3.25,6.17.3,1.78.68,5.82.38,8.97Z"/>
  </g>
</svg>